<?xml version="1.0" standalone="no"?>
<!DOCTYPE svg PUBLIC "-//W3C//DTD SVG 20010904//EN"
 "http://www.w3.org/TR/2001/REC-SVG-20010904/DTD/svg10.dtd">
<svg version="1.0" xmlns="http://www.w3.org/2000/svg"
 width="196.000000pt" height="153.000000pt" viewBox="0 0 196.000000 153.000000"
 preserveAspectRatio="xMidYMid meet">

<g transform="translate(0.000000,153.000000) scale(0.100000,-0.100000)"
fill="#000000" stroke="none">
<path d="M820 1497 c-183 -62 -312 -216 -341 -409 l-12 -76 -56 -11 c-169 -33
-319 -164 -377 -329 -33 -94 -33 -230 0 -324 54 -152 180 -275 331 -321 79
-24 134 -28 232 -17 223 25 459 127 708 305 75 54 97 65 131 65 113 0 175 137
97 214 -14 14 -43 31 -64 37 -77 23 -159 -39 -159 -120 0 -34 -5 -40 -85 -96
-103 -73 -265 -165 -363 -206 -183 -76 -379 -96 -495 -50 -72 28 -163 115
-196 185 -69 150 -40 320 75 431 69 67 140 98 238 102 136 7 128 0 120 97 -17
210 109 379 312 415 154 28 322 -58 394 -202 34 -68 43 -77 82 -77 29 0 58 31
58 63 0 32 -50 123 -98 178 -130 148 -349 209 -532 146z"/>
<path d="M1282 995 c-205 -37 -463 -161 -678 -326 -42 -32 -56 -38 -81 -33
-17 3 -45 -1 -66 -10 -85 -35 -103 -149 -33 -213 62 -57 151 -40 195 37 12 21
21 49 21 62 0 27 40 60 180 151 152 98 317 170 463 202 115 25 245 18 318 -18
75 -36 145 -109 182 -187 27 -57 31 -75 31 -150 0 -119 -28 -185 -108 -266
-79 -79 -148 -108 -261 -108 -55 -1 -95 5 -128 17 -57 22 -93 16 -109 -18 -27
-60 14 -95 148 -122 321 -65 630 230 584 557 -17 123 -61 211 -146 295 -128
126 -297 169 -512 130z"/>
</g>
</svg>
