<?xml version="1.0" standalone="no"?>
<!DOCTYPE svg PUBLIC "-//W3C//DTD SVG 20010904//EN"
 "http://www.w3.org/TR/2001/REC-SVG-20010904/DTD/svg10.dtd">
<svg version="1.0" xmlns="http://www.w3.org/2000/svg"
 width="1535.000000pt" height="229.000000pt" viewBox="0 0 1535.000000 229.000000"
 preserveAspectRatio="xMidYMid meet">

<g transform="translate(0.000000,229.000000) scale(0.100000,-0.100000)"
fill="#000000" stroke="none">
<path d="M1337 2270 c-125 -23 -227 -67 -331 -143 -165 -122 -296 -368 -296
-557 l0 -56 -77 -13 c-280 -46 -504 -245 -595 -527 -19 -58 -22 -91 -22 -214
0 -133 2 -152 27 -225 68 -195 213 -362 393 -453 172 -87 361 -99 625 -41 286
62 634 231 922 447 100 75 114 83 144 77 43 -8 110 11 151 42 96 72 96 233 -1
307 -131 100 -317 3 -317 -166 0 -31 -7 -39 -67 -84 -276 -205 -568 -356 -809
-420 -174 -46 -348 -56 -458 -28 -261 67 -438 308 -423 574 17 307 269 538
576 529 47 -1 96 1 108 5 28 9 35 42 22 112 -53 285 148 577 440 639 131 27
236 13 366 -50 112 -54 193 -139 259 -272 39 -78 57 -93 106 -93 42 0 77 25
90 65 9 28 7 42 -14 93 -82 202 -261 363 -481 432 -79 24 -257 35 -338 20z"/>
<path d="M12598 1892 c-31 -19 -58 -67 -58 -105 0 -31 38 -88 70 -104 78 -40
170 18 170 107 0 38 -23 84 -52 104 -29 21 -96 20 -130 -2z"/>
<path d="M12125 1858 c-45 -26 -44 -8 -45 -726 l0 -684 29 -29 c16 -16 39 -29
51 -29 37 0 77 28 89 61 8 22 11 232 11 681 0 692 -1 702 -48 727 -26 14 -62
14 -87 -1z"/>
<path d="M8870 1771 c-81 -25 -110 -76 -110 -191 l0 -80 -55 0 c-46 0 -59 -4
-89 -30 -42 -37 -54 -86 -31 -133 21 -45 62 -67 123 -67 l51 0 3 -322 c4 -372
8 -389 88 -469 66 -66 124 -84 268 -84 l114 0 29 33 c34 38 39 97 13 141 -23
39 -47 51 -120 60 -46 5 -71 14 -87 30 -22 21 -22 26 -22 314 l0 292 93 5 c91
5 95 7 123 38 23 25 29 42 29 77 0 35 -6 52 -29 77 -28 31 -32 33 -123 38
l-93 5 -5 98 -5 99 -37 34 c-21 19 -46 34 -57 34 -11 0 -25 2 -33 4 -7 2 -24
1 -38 -3z"/>
<path d="M3660 1509 c-30 -5 -83 -22 -116 -38 -130 -61 -198 -159 -199 -285 0
-92 23 -153 80 -205 61 -56 103 -75 281 -126 212 -62 263 -89 264 -142 1 -88
-109 -142 -231 -113 -44 11 -63 23 -115 76 -61 62 -64 64 -114 64 -67 0 -114
-23 -134 -65 -31 -64 -15 -107 64 -178 102 -92 235 -133 400 -123 155 9 242
45 324 137 98 109 101 273 7 381 -54 61 -135 102 -287 143 -225 61 -264 84
-264 153 0 72 46 102 158 102 57 0 75 -4 109 -26 22 -15 48 -40 57 -55 47 -79
190 -79 231 1 24 46 19 91 -16 143 -36 55 -129 120 -203 143 -63 19 -222 26
-296 13z"/>
<path d="M4960 1506 c-70 -15 -136 -47 -186 -90 l-39 -34 -20 41 c-49 96 -190
104 -245 14 -19 -31 -20 -53 -20 -492 0 -432 1 -462 19 -491 40 -66 152 -84
208 -33 50 46 53 67 53 362 0 299 7 348 57 407 36 44 98 72 168 77 80 7 137
-10 186 -54 74 -67 73 -62 79 -408 4 -274 7 -314 23 -343 50 -92 185 -95 244
-5 16 24 19 60 23 338 6 349 7 355 82 419 91 78 252 73 340 -11 16 -15 37 -51
48 -80 18 -49 20 -78 20 -336 0 -315 3 -330 69 -374 61 -41 154 -21 192 41 17
29 19 55 19 347 0 174 -5 341 -10 370 -23 123 -115 246 -223 298 -68 33 -182
54 -253 47 -126 -13 -218 -58 -301 -150 l-51 -56 -22 35 c-48 78 -164 146
-280 164 -80 13 -109 13 -180 -3z"/>
<path d="M6900 1513 c-103 -16 -230 -89 -292 -167 -99 -126 -132 -239 -125
-431 6 -170 34 -254 121 -361 173 -217 498 -246 691 -63 48 45 55 49 55 30 0
-29 22 -70 53 -100 55 -50 167 -34 207 31 19 32 20 49 20 492 0 442 -1 460
-20 491 -38 62 -126 83 -188 45 -38 -23 -72 -75 -72 -109 0 -22 -3 -21 -48 21
-26 24 -68 56 -92 71 -77 45 -210 66 -310 50z m286 -276 c59 -30 108 -81 137
-146 31 -69 31 -226 -1 -296 -88 -192 -326 -234 -471 -84 -58 61 -84 133 -84
239 -1 153 67 256 202 307 55 20 156 11 217 -20z"/>
<path d="M2000 1504 c-201 -37 -303 -65 -440 -121 -205 -84 -406 -199 -618
-353 -106 -78 -121 -85 -150 -79 -58 12 -120 -9 -168 -56 -47 -48 -59 -86 -52
-165 11 -113 122 -187 235 -158 82 20 153 114 153 201 0 73 508 381 775 469
380 126 633 99 820 -87 116 -115 165 -235 165 -403 0 -155 -60 -293 -175 -401
-145 -135 -347 -185 -530 -130 -95 28 -143 34 -170 19 -48 -26 -60 -106 -22
-144 32 -31 120 -63 230 -82 145 -26 309 1 453 74 211 107 358 306 400 545 19
109 18 163 -6 277 -54 264 -249 483 -505 567 -69 22 -100 26 -225 29 -80 1
-156 0 -170 -2z"/>
<path d="M7945 1493 c-36 -10 -77 -45 -91 -79 -11 -27 -14 -121 -14 -475 0
-488 0 -491 64 -530 62 -38 165 -16 198 43 9 17 14 99 18 308 5 243 8 291 23
325 37 82 96 119 211 131 96 10 106 22 106 125 0 79 -1 82 -34 115 -27 27 -42
34 -72 34 -54 0 -118 -35 -180 -98 -54 -55 -54 -55 -54 -26 0 35 -30 87 -63
109 -28 18 -81 26 -112 18z"/>
<path d="M9860 1490 c-81 -17 -190 -79 -256 -145 -107 -106 -154 -230 -154
-406 0 -178 47 -305 150 -409 104 -104 224 -150 389 -150 176 0 295 46 405
157 233 235 199 684 -66 866 -94 65 -175 89 -308 93 -63 2 -135 -1 -160 -6z
m253 -159 c154 -53 240 -173 254 -350 19 -261 -141 -451 -382 -451 -148 0
-274 85 -326 219 -28 70 -37 229 -19 310 21 97 76 181 147 230 88 60 224 77
326 42z"/>
<path d="M11179 1482 c-66 -22 -140 -71 -171 -113 -12 -16 -25 -29 -29 -29 -5
0 -9 23 -11 51 -2 43 -8 56 -30 72 -37 27 -82 26 -113 -3 l-25 -23 0 -496 c1
-523 0 -514 47 -539 33 -18 59 -14 92 13 l30 26 3 332 c3 318 5 334 26 389 31
78 93 139 168 168 49 18 74 21 144 18 129 -7 207 -57 259 -168 l26 -55 5 -343
5 -344 28 -24 c15 -13 37 -24 48 -24 28 0 75 26 83 45 3 9 6 173 6 365 0 313
-2 354 -19 409 -39 124 -104 200 -220 254 -60 28 -76 31 -181 34 -91 2 -127
-1 -171 -15z"/>
<path d="M13474 1491 c-60 -15 -128 -55 -178 -103 -27 -26 -51 -48 -53 -48 -2
0 -3 20 -3 44 0 92 -87 133 -149 72 l-26 -26 -3 -468 c-2 -317 0 -479 8 -504
7 -25 20 -43 40 -53 43 -22 68 -19 101 14 l29 29 0 293 c0 167 5 319 11 355
20 117 103 215 207 244 55 15 162 12 215 -6 63 -21 130 -84 164 -152 l28 -57
3 -330 c2 -199 7 -341 13 -357 20 -51 96 -61 139 -18 19 19 20 35 20 359 0
186 -5 363 -10 392 -25 132 -104 233 -230 292 -59 28 -75 31 -180 34 -63 1
-129 -1 -146 -6z"/>
<path d="M14682 1489 c-116 -23 -239 -105 -304 -206 -70 -107 -98 -205 -98
-341 1 -272 143 -477 379 -546 81 -24 260 -22 344 4 137 43 267 159 267 240 0
50 -33 80 -88 80 -39 0 -44 -4 -82 -54 -66 -91 -130 -128 -236 -140 -114 -13
-242 31 -311 107 -43 48 -79 125 -88 189 l-6 47 409 3 c394 3 411 4 432 23 41
36 50 73 39 155 -13 94 -33 151 -75 222 -64 105 -168 179 -299 213 -64 16
-211 19 -283 4z m301 -174 c98 -49 161 -137 174 -245 l6 -50 -351 0 -351 0 5
33 c16 97 68 186 135 233 78 54 114 64 224 61 87 -3 108 -7 158 -32z"/>
<path d="M12624 1476 c-54 -24 -55 -29 -52 -553 l3 -482 23 -23 c31 -31 93
-31 124 0 l23 23 3 482 c2 357 -1 489 -9 510 -8 18 -26 35 -45 43 -39 16 -32
16 -70 0z"/>
</g>
</svg>
