<?xml version="1.0" standalone="no"?>
<!DOCTYPE svg PUBLIC "-//W3C//DTD SVG 20010904//EN"
 "http://www.w3.org/TR/2001/REC-SVG-20010904/DTD/svg10.dtd">
<svg version="1.0" xmlns="http://www.w3.org/2000/svg"
 width="141.000000pt" height="116.000000pt" viewBox="0 0 141.000000 116.000000"
 preserveAspectRatio="xMidYMid meet">

<g transform="translate(0.000000,116.000000) scale(0.100000,-0.100000)"
fill="#082F53" stroke="none">
<path d="M340 848 l0 -203 192 2 193 2 3 51 3 50 -140 0 -141 0 0 150 0 150
-55 0 -55 0 0 -202z"/>
<path d="M98 858 c30 -47 73 -70 147 -76 l65 -5 0 57 0 56 -116 0 -116 0 20
-32z"/>
<path d="M480 835 l0 -55 55 0 55 0 0 55 0 55 -55 0 -55 0 0 -55z"/>
<path d="M482 558 l3 -53 140 -3 c77 -2 154 0 172 3 41 7 89 48 95 80 l5 25
-209 0 -209 0 3 -52z"/>
<path d="M635 423 l0 -48 145 -5 145 -5 3 -142 3 -143 49 0 49 0 3 195 3 195
-200 0 -200 0 0 -47z"/>
<path d="M790 286 l0 -56 56 0 55 0 -3 53 -3 52 -52 3 -53 3 0 -55z"/>
<path d="M1077 333 c-4 -3 -7 -28 -7 -55 l0 -48 110 0 c61 0 110 2 110 5 0 2
-14 20 -31 40 -39 44 -158 83 -182 58z"/>
</g>
</svg>
