<?xml version="1.0" standalone="no"?>
<!DOCTYPE svg PUBLIC "-//W3C//DTD SVG 20010904//EN"
 "http://www.w3.org/TR/2001/REC-SVG-20010904/DTD/svg10.dtd">
<svg version="1.0" xmlns="http://www.w3.org/2000/svg"
 width="301.000000pt" height="98.000000pt" viewBox="0 0 301.000000 98.000000"
 preserveAspectRatio="xMidYMid meet">

<g transform="translate(0.000000,98.000000) scale(0.100000,-0.100000)"
fill="#082F53" stroke="none">
<path d="M260 768 l0 -203 192 2 193 2 3 51 3 50 -140 0 -141 0 0 150 0 150
-55 0 -55 0 0 -202z"/>
<path d="M18 778 c30 -47 73 -70 147 -76 l65 -5 0 57 0 56 -116 0 -116 0 20
-32z"/>
<path d="M400 755 l0 -55 55 0 55 0 0 55 0 55 -55 0 -55 0 0 -55z"/>
<path d="M2309 721 c-22 -17 -24 -29 -29 -123 l-5 -103 -87 -3 -88 -3 0 111 0
110 -35 0 -35 0 0 -129 c0 -165 -4 -161 160 -161 165 0 160 -6 160 176 0 79
-4 144 -9 144 -5 0 -19 -9 -32 -19z"/>
<path d="M2750 578 c-96 -77 -177 -145 -179 -151 -4 -10 53 -3 93 13 11 4 77
51 145 104 68 53 127 93 132 90 5 -3 9 -52 9 -110 l0 -104 30 0 30 0 0 134 c0
109 -3 138 -16 150 -34 35 -63 20 -244 -126z"/>
<path d="M953 702 c-19 -12 -71 -131 -66 -152 3 -10 32 -41 65 -69 l60 -51
125 0 124 0 -3 28 -3 27 -105 5 c-96 5 -108 7 -142 34 -43 32 -46 48 -18 94
l20 32 94 0 c79 0 97 3 120 21 14 11 26 25 26 30 0 11 -280 12 -297 1z"/>
<path d="M1287 703 c-4 -3 -7 -64 -7 -134 0 -117 2 -129 19 -139 11 -5 86 -10
170 -10 l151 0 0 35 0 35 -130 0 c-107 0 -132 3 -136 15 -13 33 15 45 105 45
86 0 111 8 111 37 0 10 -25 13 -104 13 -106 0 -129 8 -106 35 9 11 37 15 110
15 83 0 101 3 124 21 14 11 26 25 26 30 0 10 -323 13 -333 2z"/>
<path d="M1654 696 c-13 -33 6 -54 109 -126 l108 -75 -111 -3 -111 -3 3 -32 3
-32 153 -3 c165 -3 192 3 192 43 0 20 -20 39 -105 97 -57 40 -104 76 -105 81
0 4 32 7 71 7 81 0 128 19 129 53 0 4 -74 7 -165 7 -135 0 -167 -3 -171 -14z"/>
<path d="M2390 565 l0 -145 35 0 c30 0 35 3 35 23 0 18 23 34 148 97 143 73
147 76 150 110 6 56 -9 60 -200 60 l-168 0 0 -145z m268 74 c-4 -13 -185 -99
-192 -91 -8 8 -7 87 1 95 11 12 195 8 191 -4z"/>
<path d="M2813 497 c-45 -34 -82 -66 -82 -70 -1 -4 38 -6 87 -5 l87 3 3 68 c2
37 -1 67 -5 66 -4 0 -45 -28 -90 -62z"/>
<path d="M402 478 l3 -53 140 -3 c77 -2 154 0 172 3 41 7 89 48 95 80 l5 25
-209 0 -209 0 3 -52z"/>
<path d="M555 343 l0 -48 145 -5 145 -5 3 -142 3 -143 49 0 49 0 3 195 3 195
-200 0 -200 0 0 -47z"/>
<path d="M710 206 l0 -56 56 0 55 0 -3 53 -3 52 -52 3 -53 3 0 -55z"/>
<path d="M997 253 c-4 -3 -7 -28 -7 -55 l0 -48 110 0 c61 0 110 2 110 5 0 2
-14 20 -31 40 -39 44 -158 83 -182 58z"/>
</g>
</svg>
