<?xml version="1.0" standalone="no"?>
<!DOCTYPE svg PUBLIC "-//W3C//DTD SVG 20010904//EN"
 "http://www.w3.org/TR/2001/REC-SVG-20010904/DTD/svg10.dtd">
<svg version="1.0" xmlns="http://www.w3.org/2000/svg"
 width="347.000000pt" height="120.000000pt" viewBox="0 0 347.000000 120.000000"
 preserveAspectRatio="xMidYMid meet">

<g transform="translate(0.000000,120.000000) scale(0.100000,-0.100000)"
fill="#000000" stroke="none">
<path d="M330 1061 l0 -111 -55 0 -55 0 0 80 c0 44 -3 80 -7 80 -5 0 -6 -35
-5 -77 4 -73 6 -80 35 -105 l32 -27 -37 -1 c-31 0 -38 -4 -38 -20 0 -11 -4
-20 -10 -20 -5 0 -7 -6 -4 -13 2 -7 -20 -34 -51 -61 l-56 -48 -30 28 -29 28 0
-25 c0 -33 17 -49 52 -49 l28 0 0 -79 0 -80 -36 -3 -35 -3 25 -34 c25 -33 26
-41 27 -175 0 -78 4 -163 9 -191 5 -34 8 10 9 143 1 178 2 193 21 212 26 26
29 153 4 189 -16 22 -15 24 17 57 18 19 38 34 45 34 7 0 15 21 19 50 l7 50 88
0 89 0 4 -37 4 -38 1 38 c1 20 7 37 12 37 16 0 9 -342 -7 -348 -9 -2 -14 8
-14 30 -2 30 -2 30 -6 5 l-4 -27 -89 0 -89 0 -4 118 -3 117 -2 -143 -2 -143
23 7 c51 17 58 12 81 -61 l23 -70 7 50 c13 94 15 98 39 91 12 -3 32 -6 45 -6
25 0 25 3 5 -133 l-5 -39 -52 3 c-28 2 -65 -1 -83 -5 -29 -7 -31 -10 -20 -26
11 -19 12 -19 32 0 29 27 35 25 36 -12 1 -24 3 -27 6 -10 4 18 11 22 44 22 38
0 39 -1 39 -37 0 -21 3 -55 6 -76 l7 -37 -42 0 c-32 0 -41 4 -41 17 0 9 -3 14
-6 10 -4 -3 -3 -22 0 -42 8 -39 30 -47 40 -13 6 23 7 23 21 4 8 -11 15 -25 15
-32 0 -25 42 0 76 44 23 30 34 56 34 78 0 31 -3 34 -27 33 -16 0 -22 -3 -15
-6 18 -7 15 -46 -5 -64 -10 -9 -23 -25 -30 -35 -10 -17 -12 -13 -12 24 -1 30
3 42 13 42 8 0 18 5 22 12 4 6 3 8 -3 5 -26 -16 -30 54 -8 165 9 46 15 153 17
271 2 126 7 193 13 191 6 -3 36 22 68 54 l57 58 -30 29 c-16 16 -30 38 -30 49
0 12 -9 27 -20 34 -18 11 -20 10 -20 -18 0 -30 -1 -30 -55 -30 -54 0 -55 0
-55 30 0 19 -7 33 -20 40 -11 6 -20 17 -20 24 0 8 -7 19 -15 26 -13 11 -15 -1
-15 -99z m60 7 c0 -33 29 -58 67 -58 25 0 32 -4 27 -12 -4 -7 3 -4 15 6 22 20
22 20 46 -5 l25 -25 -51 -49 -50 -50 -25 28 c-16 19 -24 23 -24 13 0 -12 -11
-16 -45 -16 -25 0 -45 5 -45 10 0 6 7 10 15 10 12 0 15 16 15 85 0 69 3 85 15
85 9 0 15 -9 15 -22z m-70 -158 c0 -5 -9 -10 -20 -10 -11 0 -20 5 -20 10 0 6
9 10 20 10 11 0 20 -4 20 -10z"/>
<path d="M129 883 c-13 -17 -13 -17 6 -3 11 8 22 16 24 17 2 2 0 3 -6 3 -6 0
-17 -8 -24 -17z"/>
<path d="M69 833 l-24 -28 28 24 c25 23 32 31 24 31 -2 0 -14 -12 -28 -27z"/>
<path d="M1077 795 c-50 -17 -85 -50 -108 -100 -69 -149 77 -299 245 -251 89
26 144 109 133 202 -13 120 -147 193 -270 149z m118 -91 c21 -8 45 -56 45 -89
0 -37 -50 -85 -89 -85 -47 0 -86 39 -86 88 0 70 63 111 130 86z"/>
<path d="M580 767 c0 -49 14 -57 102 -57 71 0 78 -2 78 -20 0 -18 -7 -20 -84
-20 -67 0 -85 -3 -90 -16 -3 -9 -6 -60 -6 -115 l0 -99 130 0 c144 0 177 9 198
55 21 46 15 75 -24 112 -25 23 -33 37 -26 46 29 37 14 114 -26 136 -12 6 -73
11 -136 11 l-116 0 0 -33z m225 -212 c0 -17 -8 -20 -57 -23 -57 -3 -58 -2 -58
23 0 25 1 26 58 23 49 -3 57 -6 57 -23z"/>
<path d="M1330 793 c0 -3 6 -14 13 -22 7 -9 34 -46 60 -82 l46 -67 -59 -85
c-33 -47 -60 -88 -60 -91 0 -3 29 -6 64 -6 l63 0 28 42 28 42 20 -25 c10 -13
25 -32 32 -42 10 -15 24 -17 77 -15 l65 3 -125 178 -124 177 -64 0 c-35 0 -64
-3 -64 -7z"/>
<path d="M1557 778 c-13 -21 -12 -26 15 -65 16 -24 32 -43 37 -43 10 0 81 103
81 118 0 8 -20 12 -59 12 -50 0 -61 -3 -74 -22z"/>
<path d="M1900 755 l0 -45 93 0 c99 0 121 -7 115 -36 -3 -17 -15 -20 -103 -24
l-100 -5 -3 -102 -3 -103 56 0 55 0 0 54 0 53 66 7 c80 8 99 17 124 59 37 60
18 142 -40 172 -21 11 -61 15 -145 15 l-115 0 0 -45z"/>
<path d="M2252 758 l3 -43 97 -3 c103 -3 134 -16 108 -47 -9 -10 -39 -15 -108
-17 l-97 -3 -3 -102 -3 -103 56 0 55 0 0 55 c0 51 2 55 23 55 19 0 28 -11 46
-55 l23 -55 59 0 c32 0 59 2 59 5 0 3 -13 32 -30 65 -28 56 -29 60 -11 69 10
6 26 27 36 47 23 49 13 98 -30 141 l-33 33 -127 0 -126 0 3 -42z"/>
<path d="M2610 620 l0 -180 55 0 55 0 0 180 0 180 -55 0 -55 0 0 -180z"/>
<path d="M2780 620 l0 -180 55 0 54 0 3 91 3 92 65 -91 65 -91 53 -1 52 0 0
180 0 180 -55 0 -54 0 -3 -81 -3 -81 -58 81 -58 81 -60 0 -59 0 0 -180z"/>
<path d="M3160 768 c0 -58 3 -59 161 -56 l144 3 3 43 3 42 -155 0 -156 0 0
-32z"/>
<path d="M3267 653 c-4 -3 -7 -53 -7 -110 l0 -103 55 0 55 0 0 110 0 110 -48
0 c-27 0 -52 -3 -55 -7z"/>
<path d="M680 270 l0 -60 40 0 c22 0 40 5 40 10 0 6 -13 10 -30 10 -20 0 -30
5 -30 15 0 9 9 15 24 15 14 0 28 5 31 10 4 6 -7 10 -24 10 -21 0 -31 5 -31 15
0 10 10 15 30 15 17 0 30 5 30 10 0 6 -18 10 -40 10 l-40 0 0 -60z"/>
<path d="M1021 275 l-1 -61 30 1 c30 0 50 17 50 42 0 20 -31 44 -50 38 -14 -4
-20 0 -23 17 -2 13 -5 -4 -6 -37z m57 -18 c4 -20 -25 -34 -40 -19 -15 15 -1
44 19 40 10 -2 19 -11 21 -21z"/>
<path d="M1300 276 c0 -30 5 -58 10 -61 6 -4 10 17 10 54 0 34 -4 61 -10 61
-5 0 -10 -24 -10 -54z"/>
<path d="M2420 269 l0 -62 37 6 c61 10 82 58 43 97 -11 11 -33 20 -50 20 l-30
0 0 -61z m74 19 c14 -23 -3 -52 -33 -56 -19 -3 -21 1 -21 38 0 37 2 41 21 38
12 -2 27 -11 33 -20z"/>
<path d="M2950 270 c0 -38 4 -59 10 -55 6 3 10 28 10 55 0 27 -4 52 -10 55 -6
4 -10 -17 -10 -55z"/>
<path d="M831 250 c2 -44 2 -44 8 -10 4 22 12 36 24 38 14 3 17 -4 18 -35 l2
-38 6 35 c4 22 12 36 24 38 14 3 17 -4 17 -33 0 -22 4 -34 10 -30 14 9 12 62
-2 72 -7 4 -34 8 -60 8 l-48 0 1 -45z"/>
<path d="M1175 290 c-3 -5 3 -10 14 -10 11 0 23 -4 26 -10 4 -6 -5 -10 -20
-10 -29 0 -45 -27 -24 -41 21 -13 35 -11 21 3 -16 16 -15 28 2 28 7 0 17 -10
21 -22 7 -20 9 -17 12 16 3 25 0 42 -9 47 -18 12 -36 11 -43 -1z"/>
<path d="M1400 290 c-12 -8 -9 -10 13 -10 15 0 27 -4 27 -10 0 -5 -12 -10 -26
-10 -21 0 -25 -4 -22 -22 2 -18 10 -23 36 -23 29 -1 32 2 32 30 0 47 -26 67
-60 45z m40 -49 c0 -14 -18 -23 -30 -16 -6 4 -8 11 -5 16 8 12 35 12 35 0z"/>
<path d="M1543 293 c-17 -6 -16 -58 1 -72 7 -6 21 -9 30 -5 9 3 16 2 16 -4 0
-14 -27 -23 -47 -15 -11 4 -14 3 -9 -5 12 -19 54 -14 66 8 6 12 10 37 8 57 -3
30 -7 36 -28 38 -14 1 -31 0 -37 -2z m47 -33 c0 -24 -26 -38 -42 -22 -16 16
-2 42 22 42 13 0 20 -7 20 -20z"/>
<path d="M1686 284 c-9 -8 -16 -22 -16 -29 0 -17 27 -45 43 -45 7 0 19 5 27
10 12 8 9 10 -12 10 -15 0 -30 5 -33 10 -4 6 7 10 24 10 32 0 41 16 19 38 -16
16 -33 15 -52 -4z m49 -14 c4 -6 -5 -10 -19 -10 -14 0 -26 5 -26 10 0 6 9 10
19 10 11 0 23 -4 26 -10z"/>
<path d="M1820 252 c0 -26 4 -41 10 -37 6 3 10 20 10 36 0 44 33 35 42 -11 6
-32 6 -31 5 10 -2 44 -3 45 -34 45 -32 1 -33 0 -33 -43z"/>
<path d="M1973 293 c-22 -8 -14 -33 13 -43 30 -12 24 -31 -8 -22 -14 3 -19 2
-14 -6 10 -16 41 -15 54 1 13 15 5 30 -23 42 -19 8 -19 9 3 12 12 3 20 9 17
14 -7 10 -22 11 -42 2z"/>
<path d="M2196 287 c-37 -27 -1 -90 40 -72 17 8 16 9 -8 13 -38 5 -36 22 2 22
35 0 41 23 11 40 -25 13 -24 13 -45 -3z m44 -17 c0 -5 -9 -10 -20 -10 -11 0
-20 5 -20 10 0 6 9 10 20 10 11 0 20 -4 20 -10z"/>
<path d="M2593 255 c0 -27 2 -38 4 -22 2 15 2 37 0 50 -2 12 -4 0 -4 -28z"/>
<path d="M2683 293 c-22 -8 -14 -33 13 -43 30 -12 24 -31 -8 -22 -14 3 -19 2
-14 -6 10 -16 41 -15 54 1 13 15 5 30 -23 42 -19 8 -19 9 3 12 12 3 20 9 17
14 -7 10 -22 11 -42 2z"/>
<path d="M2805 291 c-10 -9 -5 -111 5 -111 6 0 10 9 10 20 0 13 5 18 15 14 35
-14 62 49 32 74 -12 11 -53 13 -62 3z m58 -23 c7 -21 -4 -38 -24 -38 -14 0
-19 7 -19 25 0 18 5 25 19 25 11 0 21 -6 24 -12z"/>
<path d="M3045 291 c-4 -7 4 -11 19 -11 14 0 26 -4 26 -10 0 -5 -11 -10 -24
-10 -14 0 -28 -5 -31 -10 -11 -17 15 -40 42 -38 22 2 24 6 21 43 -2 32 -7 41
-25 43 -11 2 -24 -2 -28 -7z m43 -53 c-3 -7 -11 -13 -18 -13 -7 0 -15 6 -17
13 -3 7 4 12 17 12 13 0 20 -5 18 -12z"/>
<path d="M3170 291 c0 -5 7 -25 16 -46 14 -34 14 -38 -3 -51 -17 -13 -17 -13
0 -14 12 0 26 17 43 55 27 62 28 65 15 65 -5 0 -14 -15 -21 -32 l-12 -33 -14
33 c-14 31 -24 41 -24 23z"/>
<path d="M3317 293 c-15 -14 -6 -34 20 -44 21 -8 24 -12 14 -19 -8 -4 -21 -6
-30 -3 -12 5 -13 3 -5 -7 15 -15 54 -4 54 16 0 8 -12 20 -27 26 l-28 11 30 6
c25 5 27 8 12 14 -23 9 -32 9 -40 0z"/>
<path d="M330 73 c0 -21 5 -23 50 -23 34 0 50 4 50 13 0 9 -12 11 -41 9 -28
-3 -44 0 -50 9 -6 10 -9 8 -9 -8z"/>
</g>
</svg>
