<?xml version="1.0" encoding="UTF-8"?>
<svg version="1.1" xmlns="http://www.w3.org/2000/svg" width="35" height="45">
<path d="M0 0 C4.1313942 2.20341024 6.04655505 5.02026638 7.49609375 9.4765625 C9.57074774 19.86591502 8.61485211 32.44821052 3.0625 41.6875 C1 44 1 44 -1.125 44.9375 C-3 45 -3 45 -5 44 C-5.375 41.8125 -5.375 41.8125 -5 39 C-3.48967651 37.77888739 -1.97768055 36.55939267 -0.44140625 35.37109375 C1.30234711 33.88433818 1.30234711 33.88433818 2.5 30.6875 C1.88458476 26.14881261 0.88762739 25.68468918 -2.625 22.9375 C-4.41616451 21.62431479 -6.20779485 20.31176461 -8 19 C-10.76936475 16.63146436 -12.69451327 14.45360767 -13.46875 10.76953125 C-13.73262843 6.72559437 -13.53333845 4.68333989 -11 1.4375 C-7.14596558 -0.40922483 -4.19558531 -0.81699024 0 0 Z " fill="#9FE37C" transform="translate(13,0)"/>
<path d="M0 0 C1.670625 0.4021875 1.670625 0.4021875 3.375 0.8125 C4.837958 3.738416 4.82023109 5.56867347 4.375 8.8125 C1.37842569 11.87717828 -1.25409767 14.30816512 -5.625 14.8125 C-6.54515848 12.05202457 -6.81767245 10.17887731 -6.875 7.3125 C-6.90078125 6.5390625 -6.9265625 5.765625 -6.953125 4.96875 C-6.625 2.8125 -6.625 2.8125 -5.3359375 1.01953125 C-3.625 -0.1875 -3.625 -0.1875 0 0 Z " fill="#9FE37C" transform="translate(30.625,10.1875)"/>
</svg>
