<?xml version="1.0" encoding="UTF-8"?>
<svg version="1.1" xmlns="http://www.w3.org/2000/svg" width="184" height="45">
<path d="M0 0 C4.1313942 2.20341024 6.04655505 5.02026638 7.49609375 9.4765625 C9.57074774 19.86591502 8.61485211 32.44821052 3.0625 41.6875 C1 44 1 44 -1.125 44.9375 C-3 45 -3 45 -5 44 C-5.375 41.8125 -5.375 41.8125 -5 39 C-3.48967651 37.77888739 -1.97768055 36.55939267 -0.44140625 35.37109375 C1.30234711 33.88433818 1.30234711 33.88433818 2.5 30.6875 C1.88458476 26.14881261 0.88762739 25.68468918 -2.625 22.9375 C-4.41616451 21.62431479 -6.20779485 20.31176461 -8 19 C-10.76936475 16.63146436 -12.69451327 14.45360767 -13.46875 10.76953125 C-13.73262843 6.72559437 -13.53333845 4.68333989 -11 1.4375 C-7.14596558 -0.40922483 -4.19558531 -0.81699024 0 0 Z " fill="#9FE37C" transform="translate(13,0)"/>
<path d="M0 0 C2.578125 -0.020625 5.15625 -0.04125 7.8125 -0.0625 C9.02450073 -0.07615601 9.02450073 -0.07615601 10.26098633 -0.09008789 C13.44381813 -0.10246624 15.96056322 -0.01314559 19 1 C19.66 0.67 20.32 0.34 21 0 C28.10828025 -0.57324841 28.10828025 -0.57324841 31.2421875 1.44140625 C33.87346539 5.2713774 33.43395139 8.72196572 33.25 13.25 C33.23195312 14.09046875 33.21390625 14.9309375 33.1953125 15.796875 C33.14830798 17.86507395 33.07656724 19.93268441 33 22 C31.02 22 29.04 22 27 22 C26.67 17.05 26.34 12.1 26 7 C24.35 7.33 22.7 7.66 21 8 C20.67 12.62 20.34 17.24 20 22 C18.02 22 16.04 22 14 22 C13.93941406 21.08476563 13.87882813 20.16953125 13.81640625 19.2265625 C13.69072266 17.44378906 13.69072266 17.44378906 13.5625 15.625 C13.48128906 14.44164062 13.40007812 13.25828125 13.31640625 12.0390625 C13.18915064 9.08481099 13.18915064 9.08481099 12 7 C10.35 7.33 8.7 7.66 7 8 C6.67 12.62 6.34 17.24 6 22 C4.02 22 2.04 22 0 22 C0 14.74 0 7.48 0 0 Z " fill="#9FE37D" transform="translate(131,15)"/>
<path d="M0 0 C1.98 0 3.96 0 6 0 C6 10.23 6 20.46 6 31 C-9 32 -9 32 -14 29 C-16.60339999 24.80096776 -17.34460843 22.19514109 -16.5 17.3125 C-15.65100825 14.33340319 -14.92260996 12.90384874 -12.9375 10.4375 C-8.76305966 8.39468877 -5.61931485 8.72422001 -1 9 C-0.67 6.03 -0.34 3.06 0 0 Z M-8 15 C-9.66846734 16.69495956 -9.66846734 16.69495956 -11 19 C-11.00635246 21.63537508 -11.00635246 21.63537508 -10 24 C-7.24104365 26.29637779 -7.24104365 26.29637779 -4.4375 25.75 C-1.84999433 25.16191948 -1.84999433 25.16191948 0 23 C-0.32326553 19.40320934 -0.32326553 19.40320934 -1 16 C-3.31 15.67 -5.62 15.34 -8 15 Z " fill="#9FE37D" transform="translate(97,6)"/>
<path d="M0 0 C2.94214318 1.30086496 3.83163498 2.39796197 6 5 C6.76863774 7.77222011 6.90134612 10.08971062 7 13 C-0.92 13.495 -0.92 13.495 -9 14 C-7.18017538 16.24067222 -7.18017538 16.24067222 -4.5625 16.25 C-1.75895635 16.17967816 -1.75895635 16.17967816 1 14 C2.32 14.66 3.64 15.32 5 16 C4.69611836 18.93752254 4.19330344 19.84080893 1.875 21.75 C-1.7098228 23.30861861 -4.12117952 23.41558791 -8 23 C-11.62535141 21.352113 -14.20557709 19.58884581 -16 16 C-16.66921551 12.14649532 -16.89898103 8.60484761 -14.9453125 5.1171875 C-10.58005702 -0.22960471 -6.61835887 -0.95499809 0 0 Z M-7 6 C-7.33 6.66 -7.66 7.32 -8 8 C-5.69 8 -3.38 8 -1 8 C-1.33 7.34 -1.66 6.68 -2 6 C-3.65 6 -5.3 6 -7 6 Z " fill="#9FE37D" transform="translate(122,15)"/>
<path d="M0 0 C2.3925 -0.0825 4.785 -0.165 7.25 -0.25 C7.99668945 -0.28641602 8.74337891 -0.32283203 9.51269531 -0.36035156 C12.6591009 -0.41281986 14.74011028 -0.15132819 17.46875 1.4375 C19.78155466 5.3079078 19.42934629 8.83532207 19.25 13.25 C19.23195313 14.09046875 19.21390625 14.9309375 19.1953125 15.796875 C19.14830798 17.86507395 19.07656724 19.93268441 19 22 C17.02 22 15.04 22 13 22 C12.67 17.05 12.34 12.1 12 7 C10.35 7 8.7 7 7 7 C6.67 11.95 6.34 16.9 6 22 C4.02 22 2.04 22 0 22 C0 14.74 0 7.48 0 0 Z " fill="#9FE37C" transform="translate(59,15)"/>
<path d="M0 0 C2.31 0 4.62 0 7 0 C7 10.56 7 21.12 7 32 C4.69 32 2.38 32 0 32 C0 21.44 0 10.88 0 0 Z " fill="#9FE37A" transform="translate(177,6)"/>
<path d="M0 0 C1.98 0 3.96 0 6 0 C6 9.9 6 19.8 6 30 C4.02 30 2.04 30 0 30 C0 20.1 0 10.2 0 0 Z " fill="#A2E478" transform="translate(50,8)"/>
<path d="M0 0 C1.98 0 3.96 0 6 0 C6 7.59 6 15.18 6 23 C4.02 23 2.04 23 0 23 C0 15.41 0 7.82 0 0 Z " fill="#9FE47D" transform="translate(168,15)"/>
<path d="M0 0 C1.670625 0.4021875 1.670625 0.4021875 3.375 0.8125 C4.837958 3.738416 4.82023109 5.56867347 4.375 8.8125 C1.37842569 11.87717828 -1.25409767 14.30816512 -5.625 14.8125 C-6.54515848 12.05202457 -6.81767245 10.17887731 -6.875 7.3125 C-6.90078125 6.5390625 -6.9265625 5.765625 -6.953125 4.96875 C-6.625 2.8125 -6.625 2.8125 -5.3359375 1.01953125 C-3.625 -0.1875 -3.625 -0.1875 0 0 Z " fill="#9FE37D" transform="translate(30.625,10.1875)"/>
<path d="M0 0 C2.625 0.9375 2.625 0.9375 5 2 C4.67 3.65 4.34 5.3 4 7 C1.625 7.625 1.625 7.625 -1 8 C-1.66 7.34 -2.32 6.68 -3 6 C-2.75 3.4375 -2.75 3.4375 -2 1 C-1.34 0.67 -0.68 0.34 0 0 Z " fill="#9FE37C" transform="translate(170,5)"/>
</svg>
