<?xml version="1.0" encoding="utf-8"?>
<!-- Generator: Adobe Illustrator 28.0.0, SVG Export Plug-In . SVG Version: 6.00 Build 0)  -->
<svg version="1.1" id="Layer_1" xmlns="http://www.w3.org/2000/svg" xmlns:xlink="http://www.w3.org/1999/xlink" x="0px" y="0px"
	 viewBox="0 0 340.16 340.16" style="enable-background:new 0 0 340.16 340.16;" xml:space="preserve">
<style type="text/css">
	.st0{fill:#4F6F7E;}
</style>
<g>
	<path class="st0" d="M248.75,261c-20.94,21.21-48.88,32.89-78.67,32.89S112.35,282.21,91.41,261c-2.29-2.32-6.02-2.34-8.33-0.05
		c-2.32,2.29-2.34,6.02-0.05,8.33c23.17,23.47,54.09,36.4,87.05,36.4c32.97,0,63.88-12.93,87.05-36.4c2.29-2.32,2.26-6.05-0.05-8.33
		C254.76,258.66,251.03,258.68,248.75,261z"/>
	<path class="st0" d="M215.3,254.1c-13.49,8.64-29.12,13.21-45.22,13.21s-31.73-4.57-45.22-13.21c-2.74-1.75-6.38-0.96-8.14,1.78
		s-0.96,6.38,1.78,8.14c15.39,9.86,33.22,15.07,51.58,15.07c18.35,0,36.19-5.21,51.58-15.07c2.74-1.76,3.54-5.4,1.78-8.14
		C221.68,253.14,218.04,252.34,215.3,254.1z"/>
	<path class="st0" d="M95.73,68.17c22.15-14.33,47.86-21.9,74.35-21.9s52.2,7.57,74.35,21.9c0.99,0.64,2.1,0.95,3.19,0.95
		c1.93,0,3.82-0.95,4.95-2.69c1.77-2.73,0.99-6.38-1.75-8.15c-24.06-15.56-51.98-23.79-80.75-23.79s-56.69,8.23-80.75,23.79
		c-2.73,1.77-3.51,5.42-1.75,8.15C89.35,69.15,93,69.93,95.73,68.17z"/>
	<path class="st0" d="M170.08,87.61c-52.79,0-95.74,42.95-95.74,95.74c0,3.25,2.64,5.89,5.89,5.89s5.89-2.64,5.89-5.89
		c0-46.29,37.66-83.96,83.96-83.96c46.29,0,83.96,37.66,83.96,83.96c0,3.25,2.64,5.89,5.89,5.89s5.89-2.64,5.89-5.89
		C265.82,130.56,222.87,87.61,170.08,87.61z"/>
	<path class="st0" d="M275.37,121.05c-10.64-17.95-25.8-32.99-43.82-43.48c-18.59-10.82-39.84-16.54-61.46-16.54
		s-42.88,5.72-61.46,16.54c-18.03,10.5-33.18,25.54-43.82,43.48c-1.66,2.8-0.74,6.41,2.06,8.07c0.94,0.56,1.98,0.82,3,0.82
		c2.01,0,3.97-1.03,5.07-2.89c19.84-33.47,56.3-54.26,95.15-54.26s75.31,20.79,95.15,54.26c1.66,2.8,5.27,3.72,8.07,2.06
		C276.1,127.46,277.03,123.85,275.37,121.05z"/>
	<path class="st0" d="M153.55,123.63c-0.02-0.21-0.02-0.42-0.06-0.62c-0.04-0.22-0.11-0.42-0.17-0.63c-0.04-0.13-0.06-0.27-0.11-0.4
		c-0.01-0.03-0.03-0.06-0.05-0.09c-0.08-0.2-0.19-0.39-0.29-0.58c-0.08-0.16-0.16-0.32-0.25-0.47c-0.09-0.14-0.21-0.27-0.31-0.4
		c-0.13-0.17-0.26-0.35-0.41-0.5c-0.1-0.1-0.21-0.18-0.32-0.28c-0.18-0.16-0.35-0.32-0.55-0.45c-0.12-0.08-0.25-0.14-0.37-0.21
		c-0.2-0.12-0.4-0.24-0.62-0.34c-0.12-0.05-0.26-0.09-0.39-0.13c-0.23-0.08-0.47-0.17-0.71-0.22c-0.11-0.02-0.23-0.03-0.35-0.05
		c-0.27-0.04-0.55-0.08-0.83-0.08c-0.03,0-0.05-0.01-0.07-0.01c-0.1,0-0.2,0.02-0.29,0.03c-0.26,0.01-0.53,0.03-0.79,0.08
		c-0.17,0.03-0.33,0.09-0.5,0.13c-0.17,0.05-0.34,0.07-0.5,0.13c-26.82,10.12-44.85,36.19-44.85,64.87
		c0,38.22,31.09,69.31,69.31,69.31c3.26,0,5.9-2.64,5.9-5.9s-2.64-5.9-5.9-5.9c-31.72,0-57.52-25.8-57.52-57.52
		c0-20.83,11.46-40,29.24-50.09v80.32c0,3.26,2.64,5.9,5.9,5.9s5.9-2.64,5.9-5.9v-24.4h32.97v53.52c0,3.26,2.64,5.9,5.9,5.9
		c1.01,0,1.94-0.28,2.77-0.72c0.27-0.07,0.55-0.13,0.81-0.24c26.33-10.64,43.35-35.88,43.35-64.28c0-38.22-31.09-69.31-69.31-69.31
		c-3.26,0-5.9,2.64-5.9,5.9s2.64,5.9,5.9,5.9c31.72,0,57.52,25.8,57.52,57.52c0,21.05-11.27,40-29.24,50.1v-80.33
		c0-3.26-2.64-5.9-5.9-5.9s-5.9,2.64-5.9,5.9v24.27h-32.97v-53.39C153.59,123.91,153.56,123.78,153.55,123.63z"/>
</g>
</svg>
