<?xml version="1.0" encoding="utf-8"?>
<!-- Generator: Adobe Illustrator 28.0.0, SVG Export Plug-In . SVG Version: 6.00 Build 0)  -->
<svg version="1.1" id="Layer_1" xmlns="http://www.w3.org/2000/svg" xmlns:xlink="http://www.w3.org/1999/xlink" x="0px" y="0px"
	 viewBox="0 0 671.25 337.37" style="enable-background:new 0 0 671.25 337.37;" xml:space="preserve">
<style type="text/css">
	.st0{fill:#020203;}
	.st1{fill:#a9d6e5;}
</style>
<g>
	<g>
		<path class="st0" d="M310.47,140.99h9.58v22.65h26v-22.65h9.58v54.49h-9.58v-22.96h-26v22.96h-9.58V140.99z"/>
		<path class="st0" d="M388.94,140.6h8.87l23.98,54.88h-10.12l-5.53-13.16h-25.77l-5.61,13.16h-9.81L388.94,140.6z M402.64,173.84
			l-9.42-21.8l-9.34,21.8H402.64z"/>
		<path class="st0" d="M431.13,140.99h9.58v27.4l25.92-27.4h11.75l-22.65,23.43l23.67,31.06h-11.6l-18.61-24.52l-8.49,8.72v15.8
			h-9.58V140.99z"/>
		<path class="st0" d="M481.02,168.39v-0.16c0-15.34,11.83-28.18,28.57-28.18c16.74,0,28.42,12.69,28.42,28.03v0.16
			c0,15.34-11.83,28.18-28.57,28.18C492.7,196.42,481.02,183.73,481.02,168.39z M527.96,168.39v-0.16
			c0-10.59-7.71-19.38-18.53-19.38c-10.82,0-18.37,8.64-18.37,19.23v0.16c0,10.59,7.71,19.38,18.53,19.38
			C520.41,187.62,527.96,178.98,527.96,168.39z"/>
		<path class="st0" d="M549.6,140.99h8.87l29.19,37.68v-37.68h9.42v54.49h-8.02l-30.05-38.77v38.77h-9.42V140.99z"/>
	</g>
	<g>
		<g>
			<path class="st1" d="M257.27,126.1c-9.15-15.42-22.17-28.35-37.66-37.37c-15.97-9.3-34.24-14.22-52.82-14.22
				s-36.85,4.92-52.82,14.22c-15.49,9.02-28.52,21.94-37.66,37.37c-1.43,2.41-0.63,5.51,1.77,6.94c0.81,0.48,1.7,0.71,2.58,0.71
				c1.73,0,3.41-0.89,4.36-2.48c17.05-28.76,48.39-46.63,81.77-46.63c33.39,0,64.72,17.87,81.77,46.63c1.43,2.41,4.53,3.2,6.94,1.77
				C257.91,131.61,258.7,128.51,257.27,126.1z M166.79,97.37c-45.37,0-82.28,36.91-82.28,82.27c0,2.8,2.27,5.06,5.06,5.06
				c2.8,0,5.06-2.27,5.06-5.06c0-39.78,32.37-72.15,72.15-72.15s72.15,32.37,72.15,72.15c0,2.8,2.27,5.06,5.06,5.06
				c2.8,0,5.06-2.27,5.06-5.06C249.07,134.28,212.16,97.37,166.79,97.37z M234.4,246.38c-17.99,18.23-42,28.27-67.61,28.27
				s-49.61-10.04-67.61-28.27c-1.96-1.99-5.17-2.01-7.16-0.05c-1.99,1.96-2.01,5.17-0.05,7.16c19.91,20.17,46.48,31.28,74.81,31.28
				s54.9-11.11,74.81-31.28c1.96-1.99,1.94-5.2-0.05-7.16C239.57,244.36,236.36,244.38,234.4,246.38z M102.9,80.66
				c19.03-12.31,41.13-18.82,63.9-18.82s44.86,6.51,63.9,18.82c0.85,0.55,1.8,0.81,2.75,0.81c1.66,0,3.29-0.82,4.26-2.31
				c1.52-2.35,0.85-5.48-1.5-7c-20.68-13.38-44.67-20.45-69.4-20.45s-48.72,7.07-69.4,20.45c-2.35,1.52-3.02,4.65-1.5,7
				C97.41,81.51,100.55,82.18,102.9,80.66z M205.65,240.44c-11.59,7.43-25.03,11.35-38.86,11.35s-27.27-3.92-38.86-11.35
				c-2.35-1.51-5.49-0.82-6.99,1.53c-1.51,2.35-0.82,5.49,1.53,6.99c13.22,8.47,28.55,12.95,44.32,12.95s31.1-4.48,44.32-12.95
				c2.35-1.51,3.04-4.64,1.53-6.99C211.14,239.62,208.01,238.93,205.65,240.44z"/>
			<g>
				<path class="st1" d="M186.01,184.71h-38.43c-2.8,0-5.06-2.27-5.06-5.06s2.27-5.06,5.06-5.06h38.43c2.8,0,5.06,2.27,5.06,5.06
					S188.81,184.71,186.01,184.71z"/>
			</g>
			<g>
				<path class="st1" d="M187.21,235.31c-2,0-3.9-1.2-4.7-3.17c-1.05-2.59,0.2-5.55,2.8-6.6c18.78-7.59,30.92-25.59,30.92-45.85
					c0-27.25-22.17-49.43-49.43-49.43c-2.8,0-5.07-2.27-5.07-5.07c0-2.8,2.27-5.07,5.07-5.07c32.84,0,59.56,26.72,59.56,59.56
					c0,24.41-14.62,46.09-37.25,55.24C188.48,235.19,187.84,235.31,187.21,235.31z"/>
			</g>
			<g>
				<path class="st1" d="M166.79,239.26c-32.84,0-59.56-26.72-59.56-59.56c0-24.64,15.49-47.05,38.54-55.74
					c2.62-0.99,5.54,0.33,6.53,2.95c0.99,2.62-0.33,5.54-2.95,6.53c-19.13,7.22-31.98,25.81-31.98,46.26
					c0,27.26,22.17,49.43,49.43,49.43c2.8,0,5.07,2.27,5.07,5.07C171.86,236.99,169.59,239.26,166.79,239.26z"/>
			</g>
			<g>
				<g>
					<path class="st1" d="M147.56,210.74c-2.8,0-5.07-2.27-5.07-5.07v-76.98c0-2.8,2.27-5.07,5.07-5.07c2.8,0,5.07,2.27,5.07,5.07
						v76.98C152.63,208.47,150.36,210.74,147.56,210.74z"/>
				</g>
				<g>
					<path class="st1" d="M186.03,235.76c-2.8,0-5.07-2.27-5.07-5.07v-76.98c0-2.8,2.27-5.07,5.07-5.07c2.8,0,5.07,2.27,5.07,5.07
						v76.98C191.09,233.49,188.82,235.76,186.03,235.76z"/>
				</g>
			</g>
		</g>
	</g>
</g>
</svg>
