<svg width="1366" height="768" xmlns="http://www.w3.org/2000/svg" xmlns:svg="http://www.w3.org/2000/svg" enable-background="new 0 0 1366 768" version="1.1" xml:space="preserve">
 <style type="text/css">.st0{fill:#2A967A;}
	.st1{fill:none;stroke:#2A967A;stroke-width:24;stroke-miterlimit:10;}</style>
 <g class="layer">
  <title>Layer 1</title>
  <g id="svg_5">
   <g id="svg_1">
    <path class="st0" d="m1200.38,166.58c-4.68,29.37 -38.65,53.39 -75.75,57.03c113.77,55.07 151.8,170.82 84.15,261.56c-68.88,92.7 -221.3,124.47 -340.37,71.1c-79.17,-35.44 -123.75,-99.48 -124.69,-165.72c0,-1.45 0,-2.91 0,-4.62c-0.62,-51.44 -19.32,-99.72 -51.43,-140.74c-61.4,-78.14 -172.05,-130.55 -297.99,-131.27c0,0 0,0 0,0c-0.93,0 -1.87,0 -2.49,0c-0.93,0 -1.87,0 -2.49,0c0,0 0,0 0,0c-193.25,1.21 -349.72,123.5 -349.72,274.19c0,120.59 99.75,222.74 238.44,259.64c-3.42,-7.28 -5.61,-14.8 -5.91,-22.81c-1.26,-21.84 14.03,-41.74 36.16,-54.12c-96.33,-26.69 -165.52,-98.51 -165.52,-182.71c0,-107.01 111.59,-193.87 249.06,-193.87c136.54,0 247.49,85.41 249.06,191.45c0,0.74 0,1.7 0,2.42c0,0.74 0,1.7 0,2.42c0.62,49.5 18.39,98.27 51.75,140.74c29.61,37.61 71.07,70.37 123.75,94.15c0.3,0.24 0.62,0.24 0.93,0.48c0.3,0.24 0.62,0.24 0.93,0.48c168.32,75.23 383.4,30.08 480.32,-100.69c90.7,-123.02 46.13,-277.84 -98.18,-359.12l0.04,0.01l-0.01,0.01z" id="svg_2"/>
   </g>
   <circle class="st1" cx="390.23" cy="639.43" id="svg_3" r="110.77"/>
   <circle class="st1" cx="1087.73" cy="126.57" id="svg_4" r="110.77"/>
  </g>
 </g>
</svg>

