<?xml version="1.0" encoding="utf-8"?>
<!-- Generator: Adobe Illustrator 27.9.0, SVG Export Plug-In . SVG Version: 6.00 Build 0)  -->
<svg version="1.1" xmlns="http://www.w3.org/2000/svg" xmlns:xlink="http://www.w3.org/1999/xlink" x="0px" y="0px"
	 viewBox="0 0 1919 1457" style="enable-background:new 0 0 1919 1457;" xml:space="preserve">
<style type="text/css">
	.st0{fill:#2A967A;}
	.st1{fill:url(#SVGID_1_);}
	.st2{fill:#1D1D1B;}
	.st3{fill:#289579;}
	.st4{fill:#FFFFFF;}
	.st5{fill:#55FDAC;}
</style>
<g id="Camada_1">
	<g>
		<g>
			<g>
				<g transform="translate(401.301366, 586.61688)">
					<g>
						<path d="M140.5,195V68.8h22V195H140.5z"/>
					</g>
				</g>
			</g>
			<g>
				<g transform="translate(441.968481, 586.61688)">
					<g>
						<path d="M175.2,107.5V195H154V79.8c0-3.3,0.9-6,2.7-8c1.8-2,4.5-3,7.9-3c2.1,0,4.2,0.5,6.1,1.4c1.9,0.9,3.8,2.6,5.7,5.1
							l61.6,81V68.8h21v115.3c0,8.1-2.7,12.1-8.2,12.1c-2.7,0-5.1-0.6-7.1-1.9c-2-1.2-4.3-3.2-6.8-5.7L175.2,107.5z"/>
					</g>
				</g>
			</g>
			<g>
				<g transform="translate(544.786667, 586.61688)">
					<g>
						<path d="M245.6,90.8h-35.4v32.8H240v22h-29.8V195h-22V68.8h57.4V90.8z"/>
					</g>
				</g>
			</g>
			<g>
				<g transform="translate(607.910706, 586.61688)">
					<g>
						<path d="M270.8,195c-9.3,0-17.8-1.6-25.6-4.9c-7.8-3.3-14.5-7.8-20.1-13.7c-5.6-5.8-10-12.6-13.1-20.5
							c-3.1-7.8-4.7-16.2-4.7-25.3c0-9.1,1.5-17.4,4.6-24.9c3.1-7.5,7.4-14.1,12.9-19.6c5.5-5.5,12.2-9.8,20-12.8
							c7.8-3,16.5-4.5,26-4.5h3.7c9.6,0,18.3,1.5,26.1,4.6c7.8,3.1,14.5,7.3,20.1,12.8c5.5,5.5,9.8,12,12.8,19.6
							c3,7.6,4.5,15.8,4.5,24.8c0,9.1-1.6,17.5-4.7,25.3c-3.1,7.8-7.5,14.6-13.2,20.5c-5.7,5.8-12.4,10.4-20.1,13.7
							c-7.8,3.3-16.3,4.9-25.5,4.9H270.8z M270.8,90.8c-6,0-11.6,1-16.7,3.1c-5.1,2-9.5,4.9-13.2,8.6c-3.7,3.7-6.6,8-8.7,13.1
							c-2.1,5.1-3.1,10.7-3.1,16.8c0,5.9,1,11.4,3.1,16.3c2.1,5,4.9,9.2,8.6,12.9c3.7,3.6,8.1,6.4,13.2,8.4c5.1,2,10.8,3,16.9,3h3.7
							c6.2,0,11.9-1,17.1-3.1c5.1-2.1,9.5-4.9,13.2-8.5c3.7-3.6,6.5-7.9,8.5-12.8c2-5,3-10.4,3-16.2c0-6-1-11.6-3.1-16.7
							c-2-5.1-4.9-9.5-8.6-13.2c-3.7-3.7-8.1-6.6-13.3-8.6c-5.1-2.1-10.7-3.1-16.7-3.1H270.8z"/>
					</g>
				</g>
			</g>
			<g>
				<g transform="translate(727.003122, 586.61688)">
					<g>
						<path class="st0" d="M290,137.6c3.9,0,7.4-0.6,10.6-1.8c3.2-1.2,5.9-2.8,8.2-4.9c2.3-2.1,4-4.6,5.3-7.5c1.2-2.9,1.9-6,1.9-9.3
							c0-3.3-0.6-6.4-1.9-9.3c-1.2-2.9-3-5.3-5.3-7.4c-2.3-2.1-5-3.7-8.2-4.9c-3.2-1.1-6.7-1.7-10.6-1.7h-19.2v46.7H290z
							 M270.8,159.6V195h-22V68.8h41.9c7.2,0,13.7,1.2,19.4,3.5c5.7,2.3,10.6,5.5,14.6,9.6c4,4,7.1,8.8,9.2,14.4
							c2.2,5.6,3.2,11.6,3.2,18c0,6.5-1.1,12.5-3.2,18.1c-2.2,5.6-5.2,10.3-9.3,14.4c-4,4-8.9,7.2-14.6,9.5
							c-5.7,2.3-12.1,3.4-19.3,3.4H270.8z"/>
					</g>
				</g>
			</g>
			<g>
				<g transform="translate(813.312446, 586.61688)">
					<g>
						<path class="st0" d="M371.4,195h-30.7l-33.5-35.4c-1.9-2.1-3.4-4-4.5-5.8c-1-1.8-1.5-3.7-1.5-5.5c0-6.9,4.4-10.7,13.1-11.3
							c11.8-0.9,20.5-3.2,26.1-7c5.7-3.8,8.5-9.6,8.5-17.4c0-7.2-2.2-12.6-6.6-16.3c-4.4-3.6-10.6-5.4-18.7-5.4h-24.3V195h-22V68.8
							h46.7c6.6,0,12.8,0.9,18.6,2.8c5.8,1.9,10.9,4.6,15.1,8.3c4.3,3.6,7.6,8.1,10.1,13.5c2.5,5.4,3.7,11.6,3.7,18.6
							c0,4.2-0.6,8.5-1.9,12.9c-1.3,4.4-3.5,8.6-6.5,12.5c-3,3.9-7,7.3-12,10.3c-5,3-11.2,5-18.6,6.2L371.4,195z"/>
					</g>
				</g>
			</g>
			<g>
				<g transform="translate(906.29818, 586.61688)">
					<g>
						<path class="st0" d="M370,195c-9.3,0-17.8-1.6-25.6-4.9c-7.8-3.3-14.5-7.8-20.1-13.7c-5.6-5.8-10-12.6-13.1-20.5
							c-3.1-7.8-4.7-16.2-4.7-25.3c0-9.1,1.5-17.4,4.6-24.9c3.1-7.5,7.4-14.1,12.9-19.6c5.5-5.5,12.2-9.8,20-12.8
							c7.8-3,16.5-4.5,26-4.5h3.7c9.6,0,18.3,1.5,26.1,4.6c7.8,3.1,14.5,7.3,20.1,12.8c5.5,5.5,9.8,12,12.8,19.6
							c3,7.6,4.5,15.8,4.5,24.8c0,9.1-1.6,17.5-4.7,25.3c-3.1,7.8-7.5,14.6-13.2,20.5c-5.7,5.8-12.4,10.4-20.1,13.7
							c-7.8,3.3-16.3,4.9-25.5,4.9H370z M370,90.8c-6,0-11.6,1-16.7,3.1c-5.1,2-9.5,4.9-13.2,8.6c-3.7,3.7-6.6,8-8.7,13.1
							c-2.1,5.1-3.1,10.7-3.1,16.8c0,5.9,1,11.4,3.1,16.3c2.1,5,4.9,9.2,8.6,12.9c3.7,3.6,8.1,6.4,13.2,8.4c5.1,2,10.8,3,16.9,3h3.7
							c6.2,0,11.9-1,17.1-3.1c5.1-2.1,9.5-4.9,13.2-8.5c3.7-3.6,6.5-7.9,8.5-12.8c2-5,3-10.4,3-16.2c0-6-1-11.6-3.1-16.7
							c-2-5.1-4.9-9.5-8.6-13.2c-3.7-3.7-8.1-6.6-13.3-8.6c-5.1-2.1-10.7-3.1-16.7-3.1H370z"/>
					</g>
				</g>
			</g>
			<g>
				<g transform="translate(1025.382495, 586.61688)">
					<g>
						<path class="st0" d="M396.7,90.8V195h-22V90.8h-32.2v-22h86.4v22H396.7z"/>
					</g>
				</g>
			</g>
			<g>
				<g transform="translate(1105.622375, 586.61688)">
					<g>
						<path class="st0" d="M437.2,195h-62.6V68.8h61.6v22h-39.6v29.3h34.1V142h-34.1v31h40.6V195z"/>
					</g>
				</g>
			</g>
			<g>
				<g transform="translate(1173.723378, 586.61688)">
					<g>
						<path class="st0" d="M457.9,195c-9.4,0-18-1.6-25.8-4.9c-7.8-3.3-14.5-7.8-20-13.6c-5.6-5.8-9.9-12.6-13-20.5
							c-3.1-7.9-4.7-16.3-4.7-25.4c0-9.2,1.5-17.5,4.6-25.1c3.1-7.5,7.4-14,12.9-19.5c5.5-5.5,12.2-9.7,20-12.7
							c7.8-3,16.5-4.5,26-4.5h18.4v22h-18.4c-6,0-11.6,1.1-16.7,3.2c-5.1,2.1-9.5,5-13.3,8.6c-3.7,3.7-6.6,8.1-8.7,13.2
							c-2.1,5.1-3.1,10.6-3.1,16.6c0,5.9,1,11.4,3.1,16.3c2.1,5,4.9,9.2,8.6,12.9c3.7,3.6,8.1,6.4,13.3,8.4c5.2,2,10.8,3,17,3h18.4
							v22H457.9z"/>
					</g>
				</g>
			</g>
			<g>
				<g transform="translate(1253.720483, 586.61688)">
					<g>
						<path class="st0" d="M472.6,90.8V195h-22V90.8h-32.2v-22h86.4v22H472.6z"/>
					</g>
				</g>
			</g>
		</g>
		<g>
			<g>
				<linearGradient id="SVGID_1_" gradientUnits="userSpaceOnUse" x1="152.6441" y1="725.1579" x2="463.1982" y2="725.1579">
					<stop  offset="0" style="stop-color:#1D1D1B"/>
					<stop  offset="0.176" style="stop-color:#1D1D1B"/>
					<stop  offset="0.3156" style="stop-color:#003529"/>
					<stop  offset="0.4553" style="stop-color:#043C2F"/>
					<stop  offset="0.6084" style="stop-color:#1A624F"/>
					<stop  offset="0.7179" style="stop-color:#237962"/>
					<stop  offset="0.8408" style="stop-color:#27876E"/>
					<stop  offset="0.8966" style="stop-color:#288F75"/>
					<stop  offset="1" style="stop-color:#3B9E84"/>
				</linearGradient>
				<path class="st1" d="M428.7,657.4c-1.1,9-9.2,16.3-18,17.4c27,16.8,36.1,52.1,20,79.9c-16.4,28.3-52.6,38-80.9,21.7
					c-18.8-10.8-29.4-30.4-29.6-50.6c0-0.5,0-0.9,0-1.4c-0.1-15.7-4.6-30.4-12.3-43c-14.6-23.9-40.9-39.9-70.9-40.1c0,0,0,0,0,0
					c-0.2,0-0.4,0-0.6,0c-0.2,0-0.4,0-0.6,0c0,0,0,0,0,0c-46,0.3-83.1,37.7-83.1,83.8c0,36.8,23.7,68,56.7,79.3
					c-0.8-2.2-1.3-4.5-1.4-7c-0.3-6.7,3.3-12.7,8.6-16.5c-22.9-8.2-39.3-30.1-39.3-55.8c0-32.7,26.5-59.2,59.2-59.2
					c32.5,0,58.8,26.1,59.2,58.5c0,0.3,0,0.5,0,0.8c0,0.2,0,0.5,0,0.7c0.1,15.1,4.4,30,12.3,43c7,11.5,16.9,21.5,29.4,28.7
					c0.1,0,0.2,0.1,0.2,0.1c0.1,0,0.1,0.1,0.2,0.1c40,23,91.1,9.2,114.2-30.8C473.6,729.6,463,682.3,428.7,657.4z"/>
			</g>
			<g>
				<path class="st2" d="M238.6,854.2c-25,0-45.3-20.3-45.3-45.3c0-25,20.3-45.3,45.3-45.3s45.3,20.3,45.3,45.3
					C283.9,833.9,263.6,854.2,238.6,854.2z M238.6,781.4c-15.2,0-27.5,12.3-27.5,27.5c0,15.2,12.3,27.5,27.5,27.5
					s27.5-12.3,27.5-27.5C266.1,793.8,253.8,781.4,238.6,781.4z"/>
			</g>
			<g>
				<path class="st3" d="M402.4,693.4c-25,0-45.3-20.3-45.3-45.3c0-25,20.3-45.3,45.3-45.3c25,0,45.3,20.3,45.3,45.3
					C447.7,673.1,427.4,693.4,402.4,693.4z M402.4,620.5c-15.2,0-27.5,12.3-27.5,27.5c0,15.2,12.3,27.5,27.5,27.5
					c15.2,0,27.5-12.3,27.5-27.5C429.9,632.9,417.6,620.5,402.4,620.5z"/>
			</g>
		</g>
	</g>
</g>
<g id="Camada_2">
</g>
<g id="Camada_3">
</g>
<g id="Camada_4">
</g>
</svg>
